# xmcd CD database file
#
# Track frame offsets:
#	150
#	8850
#	22642
#	39785
#	51884
#	66104
#	80735
#	96530
#	109705
#	128610
#	142325
#	153550
#	170365
#	191489
#	205786
#
# Disc length: 2986 seconds
#
# Revision: 0
# Processed by: cddbd v1.5.2PL0 Copyright (c) Steve Scherf et al.
# Submitted via: CDex 1.51
#
DISCID=c40ba80f
DTITLE=Mad Caddies - Keep It Going
DYEAR=2007
DGENRE=Blues
TTITLE0=The Duge
TTITLE1=Backjard
TTITLE2=State Of Mind
TTITLE3=Today
TTITLE4=Without You
TTITLE5=Reflections
TTITLE6=Lay Your Head Down
TTITLE7=Tired Bones
TTITLE8=Coyote
TTITLE9=Don't Do
TTITLE10=Pyramid Scheme
TTITLE11=Souls For Sale
TTITLE12=Riding For A Fall
TTITLE13=Whaicha Gonna Do
TTITLE14=Keep It Going
EXTD=YEAR: 2007
EXTT0=
EXTT1=
EXTT2=
EXTT3=
EXTT4=
EXTT5=
EXTT6=
EXTT7=
EXTT8=
EXTT9=
EXTT10=
EXTT11=
EXTT12=
EXTT13=
EXTT14=
PLAYORDER=
